<svg width="301" height="55" viewBox="0 0 301 55" fill="none" xmlns="http://www.w3.org/2000/svg">
<path d="M291.27 43.3963C288.78 43.3963 286.681 42.9626 284.975 42.0953C283.296 41.1999 282.009 39.9269 281.114 38.2761C280.218 36.5973 279.771 34.5828 279.771 32.2325C279.771 30.7216 279.994 29.2807 280.442 27.9097C280.89 26.5107 281.561 25.2656 282.457 24.1744C283.352 23.0552 284.485 22.1739 285.856 21.5304C287.255 20.8868 288.892 20.5651 290.766 20.5651C292.697 20.5651 294.32 20.9148 295.635 21.6143C296.95 22.3138 297.971 23.2791 298.699 24.5102C299.426 25.7413 299.888 27.1542 300.084 28.7491C300.307 30.3159 300.279 31.9807 300 33.7434H283.506L287.325 30.9315C286.709 32.6382 286.542 34.0232 286.821 35.0864C287.101 36.1496 287.731 36.9331 288.71 37.4367C289.689 37.9403 290.864 38.1921 292.235 38.1921C293.271 38.1921 294.348 38.0942 295.467 37.8983C296.614 37.6745 297.621 37.4367 298.489 37.1849L299.202 42.0113C297.999 42.459 296.698 42.7948 295.299 43.0186C293.9 43.2704 292.557 43.3963 291.27 43.3963ZM283.548 30.0501H293.788C293.816 29.9102 293.83 29.7983 293.83 29.7144C293.83 29.6304 293.83 29.5605 293.83 29.5045C293.83 28.777 293.732 28.1195 293.536 27.532C293.341 26.9164 293.005 26.4128 292.529 26.0211C292.054 25.6294 291.396 25.4335 290.557 25.4335C289.577 25.4335 288.78 25.7413 288.164 26.3568C287.549 26.9444 287.129 27.7138 286.905 28.6651C286.709 29.6164 286.709 30.6097 286.905 31.6449L283.548 30.0501Z" fill="#1A56DB"/>
<path d="M263.768 42.8928V28.1616C263.768 26.5947 263.754 25.2657 263.727 24.1745C263.699 23.0833 263.671 22.0481 263.643 21.0688L269.686 20.9009L270.274 24.3843H270.4C271.211 23.2092 272.218 22.2579 273.421 21.5304C274.625 20.803 276.065 20.5092 277.744 20.6491V26.8605C276.429 26.6926 275.142 26.7346 273.883 26.9864C272.652 27.2103 271.645 27.7838 270.861 28.7072V42.8928H263.768Z" fill="#1A56DB"/>
<path d="M246.279 43.3963C244.936 43.3963 243.747 43.1165 242.712 42.5569C241.677 41.9694 240.865 41.1859 240.278 40.2067C239.718 39.1994 239.438 38.0662 239.438 36.8072C239.438 35.716 239.606 34.7786 239.942 33.9952C240.306 33.1838 240.823 32.5263 241.495 32.0227C242.194 31.4911 243.034 31.1133 244.013 30.8895C245.02 30.6377 246.154 30.5118 247.413 30.5118H252.113V28.7071C252.113 28.3154 252.057 27.9516 251.945 27.6159C251.833 27.2801 251.652 26.9864 251.4 26.7345C251.148 26.4547 250.784 26.2589 250.309 26.147C249.861 26.0071 249.287 25.9371 248.588 25.9371C247.385 25.9371 246.196 26.077 245.02 26.3568C243.845 26.6366 242.824 26.9304 241.957 27.2382L240.823 22.3278C241.523 22.048 242.362 21.7822 243.342 21.5304C244.321 21.2506 245.37 21.0267 246.489 20.8588C247.608 20.663 248.728 20.5651 249.847 20.5651C251.666 20.5651 253.176 20.7469 254.38 21.1107C255.583 21.4464 256.534 21.95 257.233 22.6216C257.933 23.2931 258.423 24.1324 258.702 25.1397C259.01 26.119 259.164 27.2382 259.164 28.4972V37.7724C259.164 38.6678 259.178 39.5771 259.206 40.5004C259.262 41.4238 259.318 42.2212 259.374 42.8927H254.296L252.869 40.2906H252.785C251.917 41.2979 250.924 42.0673 249.805 42.5989C248.714 43.1305 247.539 43.3963 246.279 43.3963ZM248.798 38.6538C249.441 38.6538 250.099 38.4859 250.77 38.1502C251.47 37.8144 251.959 37.3667 252.239 36.8072V34.247H248.63C248.322 34.247 248.014 34.275 247.706 34.331C247.427 34.3869 247.161 34.4988 246.909 34.6667C246.685 34.8066 246.503 35.0165 246.363 35.2963C246.224 35.5761 246.154 35.9538 246.154 36.4294C246.154 37.1569 246.391 37.7165 246.867 38.1082C247.371 38.4719 248.014 38.6538 248.798 38.6538Z" fill="#1A56DB"/>
<path d="M222.466 43.3964C220.563 43.3964 219.066 42.9767 217.975 42.1373C216.912 41.2699 216.156 40.1088 215.709 38.6538C215.289 37.1989 215.079 35.6041 215.079 33.8693V21.0687H222.172V33.7854C222.172 35.0725 222.41 36.0657 222.885 36.7652C223.361 37.4367 224.158 37.7725 225.278 37.7725C225.809 37.7725 226.285 37.6885 226.705 37.5207C227.152 37.3528 227.544 37.1429 227.88 36.8911C228.243 36.6113 228.565 36.3175 228.845 36.0098V21.0687H235.938V35.674C235.938 37.045 235.938 38.3321 235.938 39.5352C235.966 40.7383 236.008 41.8575 236.064 42.8927H231.153L229.6 40.1228H229.433C228.985 40.6264 228.411 41.13 227.712 41.6336C227.012 42.1373 226.215 42.557 225.32 42.8927C224.424 43.2285 223.473 43.3964 222.466 43.3964Z" fill="#1A56DB"/>
<path d="M203.425 40.4585H203.341C202.921 41.158 202.236 41.8295 201.284 42.473C200.361 43.0885 199.2 43.3963 197.801 43.3963C196.038 43.3963 194.485 42.9207 193.142 41.9694C191.827 40.9901 190.806 39.6611 190.079 37.9823C189.351 36.2755 188.987 34.331 188.987 32.1486C188.987 29.8543 189.365 27.8537 190.12 26.147C190.876 24.4122 191.911 23.0552 193.226 22.076C194.569 21.0687 196.136 20.5651 197.927 20.5651C199.018 20.5651 200.095 20.8169 201.158 21.3205C202.222 21.7962 203.187 22.5376 204.054 23.5449H204.138L204.642 20.9008L210.643 21.0687C210.615 22.02 210.587 23.1392 210.559 24.4262C210.532 25.7133 210.518 26.9724 210.518 28.2035V52.2938H203.425V40.4585ZM200.109 37.8564C201.032 37.8564 201.788 37.5626 202.375 36.975C202.991 36.3595 203.341 35.688 203.425 34.9605V27.6159C203.033 27.0843 202.529 26.6926 201.914 26.4408C201.298 26.161 200.725 26.0211 200.193 26.0211C199.438 26.0211 198.752 26.2729 198.137 26.7765C197.549 27.2522 197.087 27.9377 196.752 28.833C196.416 29.7283 196.248 30.8056 196.248 32.0646C196.248 33.3517 196.416 34.4289 196.752 35.2963C197.087 36.1636 197.549 36.8071 198.137 37.2268C198.724 37.6465 199.382 37.8564 200.109 37.8564Z" fill="#1A56DB"/>
<path d="M174.533 43.3963C172.714 43.3963 170.994 43.2144 169.371 42.8507C167.748 42.459 166.461 42.0813 165.51 41.7175L166.643 36.1776C167.706 36.4574 168.909 36.7652 170.252 37.1009C171.623 37.4087 172.952 37.5626 174.239 37.5626C175.219 37.5626 176.058 37.4367 176.758 37.1849C177.485 36.933 178.045 36.5693 178.436 36.0937C178.828 35.618 179.024 35.0584 179.024 34.4149C179.024 33.6594 178.772 33.0299 178.268 32.5263C177.765 32.0226 177.093 31.561 176.254 31.1413C175.414 30.7216 174.491 30.3019 173.484 29.8822C172.589 29.4625 171.693 29.0149 170.798 28.5392C169.903 28.0356 169.077 27.448 168.322 26.7765C167.566 26.077 166.965 25.2516 166.517 24.3003C166.069 23.349 165.846 22.2158 165.846 20.9008C165.846 18.9702 166.335 17.3334 167.314 15.9904C168.294 14.6474 169.651 13.6261 171.385 12.9266C173.12 12.1992 175.079 11.8354 177.261 11.8354C178.744 11.8354 180.171 11.9893 181.542 12.2971C182.913 12.5769 184.088 12.9266 185.067 13.3463L184.06 18.8863C183.305 18.6065 182.311 18.3407 181.08 18.0889C179.877 17.8091 178.688 17.6692 177.513 17.6692C176.114 17.6692 175.009 17.935 174.197 18.4666C173.414 18.9702 173.022 19.6557 173.022 20.5231C173.022 21.2226 173.274 21.8241 173.778 22.3278C174.309 22.8034 174.995 23.2511 175.834 23.6708C176.674 24.0625 177.569 24.4822 178.52 24.9298C179.444 25.3216 180.353 25.7692 181.248 26.2729C182.172 26.7485 183.011 27.3361 183.766 28.0356C184.522 28.7071 185.123 29.5185 185.571 30.4698C186.047 31.4211 186.285 32.5543 186.285 33.8693C186.285 35.7999 185.809 37.4786 184.858 38.9056C183.934 40.3325 182.591 41.4377 180.829 42.2212C179.066 43.0046 176.967 43.3963 174.533 43.3963Z" fill="#1A56DB"/>
<path d="M121.17 12.339H130.32L133.006 21.6142L136.027 33.1977H136.111L139.259 21.6142L141.987 12.339H151.052L152.185 42.8926H145.303L145.051 32.0226L144.757 22.3277H144.673L138.797 42.8926H132.922L127.466 22.3277H127.34L127.004 32.0226L126.668 42.8926H119.953L121.17 12.339Z" fill="#1A56DB"/>
<path d="M102.266 42.8927C99.16 42.8927 96.558 42.2212 94.4595 40.8781C92.389 39.5351 90.8361 37.7165 89.8009 35.4221C88.7657 33.0998 88.248 30.4838 88.248 27.5739C88.248 25.3915 88.5418 23.363 89.1294 21.4884C89.7449 19.5858 90.6403 17.907 91.8154 16.4521C93.0185 14.9971 94.4735 13.864 96.1802 13.0526C97.915 12.2412 99.9295 11.8354 102.224 11.8354C104.518 11.8354 106.519 12.2551 108.225 13.0945C109.96 13.9059 111.415 15.0111 112.59 16.4101C113.793 17.8091 114.689 19.4179 115.276 21.2366C115.892 23.0272 116.2 24.8879 116.2 26.8185C116.2 28.1615 116.046 29.4485 115.738 30.6796C115.43 31.8827 114.982 33.0299 114.395 34.1211C113.835 35.1843 113.15 36.1496 112.338 37.017V37.0589H117.501L117.207 42.8927H102.266ZM102.266 37.5626C103.357 37.5626 104.308 37.3387 105.12 36.8911C105.931 36.4434 106.603 35.7859 107.134 34.9185C107.694 34.0512 108.099 33.0019 108.351 31.7708C108.631 30.5397 108.771 29.1408 108.771 27.5739C108.771 26.063 108.631 24.706 108.351 23.5029C108.099 22.2718 107.694 21.2226 107.134 20.3552C106.603 19.4878 105.917 18.8303 105.078 18.3826C104.266 17.935 103.315 17.7111 102.224 17.7111C101.133 17.7111 100.167 17.935 99.3279 18.3826C98.5165 18.8303 97.831 19.4878 97.2714 20.3552C96.7398 21.2226 96.3341 22.2718 96.0543 23.5029C95.8025 24.706 95.6766 26.063 95.6766 27.5739C95.6766 29.1408 95.8165 30.5397 96.0963 31.7708C96.3761 33.0019 96.7818 34.0512 97.3134 34.9185C97.873 35.7859 98.5585 36.4434 99.3699 36.8911C100.209 37.3387 101.175 37.5626 102.266 37.5626Z" fill="#1A56DB"/>
<path d="M69.044 12.339H78.1513L87.0068 42.8926H79.5783L74.7098 22.4955L73.6186 18.0468H73.5347L72.4435 22.4955L67.5751 42.8926H60.1885L69.044 12.339ZM70.1352 30.2179H77.1021L78.2772 35.7158H68.8761L70.1352 30.2179Z" fill="#1A56DB"/>
<path d="M14.0455 30.673V23.2807L23.8021 28.2082L38.853 16.0789L24.2839 7.66746L7.18214 17.5412V37.5121L24.2839 47.3859L41.3857 37.5121V29.5858L48.1977 24.1104V39.4743L46.4722 42.4629L25.9503 54.3112H22.4133L1.92988 42.4851L0.23291 39.5459V15.6575L1.90517 12.7611L22.4133 0.920654H25.8972L48.1977 13.7959V17.5412L26.3159 34.8383L22.4133 35.0634L14.0455 30.673Z" fill="url(#paint0_linear_2047_12538)"/>
<defs>
<linearGradient id="paint0_linear_2047_12538" x1="0.232909" y1="29.3437" x2="48.1977" y2="29.3437" gradientUnits="userSpaceOnUse">
<stop offset="0.423077" stop-color="#1C57DB"/>
<stop offset="1" stop-color="#6997FF"/>
</linearGradient>
</defs>
</svg>
